<?xml version="1.0" standalone="no"?><!DOCTYPE svg PUBLIC "-//W3C//DTD SVG 1.1//EN" "http://www.w3.org/Graphics/SVG/1.1/DTD/svg11.dtd"><svg t="1742206834509" class="icon" viewBox="0 0 1024 1024" version="1.1" xmlns="http://www.w3.org/2000/svg" p-id="4157" xmlns:xlink="http://www.w3.org/1999/xlink" width="200" height="200"><path d="M786.879509 917.288554l-3.381243-52.597111-97.635193 12.399697 7.418143 40.197414zM317.12337 917.288554l7.42898-40.197414-97.636999-12.399697-3.381243 52.597111z" fill="#F9C69A" p-id="4158"></path><path d="M668.44028 917.288554c-2.301124-30.064523-4.452331-57.186714-6.283837-78.693369-4.517355-53.241931-47.559565-81.547196-75.227235-95.861486-17.009169-8.799901-57.788185-13.777842-57.788185-13.777842H473.373997s-40.769986 4.977941-57.788186 13.777842c-27.66767 14.314289-68.249809 42.621361-72.776194 95.861486-1.822475 21.506655-3.870728 48.630653-5.99123 78.693369h331.621893z" fill="#005775" p-id="4159"></path><path d="M467.146152 636.914526v113.04947h0.06683c0.346794 20.173665 16.745461 36.440478 37.002212 36.440477 20.267589 0 36.666255-16.266812 37.004018-36.440477h0.065024v-113.04947h-74.138084z" fill="#F9C69A" p-id="4160"></path><path d="M467.146152 697.180844c11.854218 0.621339 24.203341 0.930203 37.069042 0.930203 12.661598 0 25.00169-0.534641 37.069042-1.464844v-59.731677h-74.13989v60.266318z" fill="#DCDDDD" p-id="4161"></path><path d="M784.795132 549.609102c0 53.51467-116.401813 135.907177-280.579938 135.907177-207.238396 0-280.578131-82.392507-280.578131-135.907177V315.452617c0-83.425665 109.281696-193.778449 280.578131-193.778449 192.051703 0 280.579938 106.30324 280.579938 193.778449v234.156485z" fill="#F9C69A" p-id="4162"></path><path d="M504.215194 109.662808c-171.296435 0-280.578131 114.897232-280.578131 201.761939v91.784849c351.513788 45.522149 424.649421-160.795075 424.64942-160.795076 8.958849 176.893909 136.508648 170.94061 136.508649 170.94061v-101.930383c0-91.071392-88.528235-201.761939-280.579938-201.761939z" fill="#691E07" p-id="4163"></path><path d="M622.289567 477.407285c0 11.709721-9.497102 21.186954-21.197792 21.186954-11.711527 0-21.195985-9.477234-21.195985-21.186954 0-11.722364 9.484458-21.197792 21.195985-21.197792 11.702496-0.001806 21.197792 9.473621 21.197792 21.197792z" fill="#390000" p-id="4164"></path><path d="M605.121451 471.347419a9.079865 9.079865 0 1 1-18.159731-0.01445 9.079865 9.079865 0 0 1 18.159731 0.01445z" fill="#FFFFFF" p-id="4165"></path><path d="M428.538211 477.407285c0 11.709721-9.486265 21.186954-21.197792 21.186954-11.709721 0-21.195985-9.477234-21.195985-21.186954 0-11.722364 9.486265-21.197792 21.195985-21.197792a21.183342 21.183342 0 0 1 21.197792 21.197792z" fill="#390000" p-id="4166"></path><path d="M411.379126 471.347419c0 5.005034-4.067606 9.07264-9.081671 9.07264s-9.090703-4.067606-9.090703-9.07264c0-5.014065 4.076637-9.090703 9.090703-9.090703s9.081671 4.076637 9.081671 9.090703z" fill="#FFFFFF" p-id="4167"></path><path d="M504.226031 540.413638c-5.664304 0-10.284614-4.602247-10.284613-10.255714a2.293899 2.293899 0 0 1 4.585991 0 5.696816 5.696816 0 0 0 11.39002 0 2.286674 2.286674 0 1 1 4.575154 0 10.273776 10.273776 0 0 1-10.266552 10.255714zM504.215194 633.591082c-63.902238 0-77.819159-43.127102-78.373669-44.960415a4.575154 4.575154 0 1 1 8.75294-2.675011c0.489485 1.558767 12.762747 38.468862 69.620729 38.468862 56.867014 0 69.13305-36.910095 69.631567-38.488731a4.573348 4.573348 0 0 1 5.71849-3.005549 4.57696 4.57696 0 0 1 3.034449 5.700429c-0.56354 1.833313-14.482268 44.960415-78.384506 44.960415z" fill="#390000" p-id="4168"></path><path d="M607.863292 648.617022c3.070573 13.084254-10.217784 27.396737-29.68883 31.961053-19.458402 4.564317-37.735537-2.349892-40.80611-15.430533-3.072379-13.084254 10.226815-27.396737 29.687023-31.961053 19.478271-4.564317 37.737343 2.348085 40.807917 15.430533z" fill="#3E3A39" p-id="4169"></path><path d="M789.207726 405.689535a10.078705 10.078705 0 0 1-10.067867-10.08593c0-142.172953-123.332277-257.83241-274.933696-257.832409-151.583356 0-274.915633 115.659457-274.915633 257.832409a10.07148 10.07148 0 1 1-20.144766 0c0-153.283008 132.366987-277.997044 295.060399-277.997043 162.711474 0 295.089299 124.714035 295.089299 277.997043a10.082317 10.082317 0 0 1-10.087736 10.08593z" fill="#9FA0A0" p-id="4170"></path><path d="M657.415117 177.526086c-12.303967 9.66508-33.086328 7.98349-48.377783-0.666495-63.224906-36.308624-147.093094-36.308624-210.318 0-15.289648 8.649985-36.073815 10.331575-48.385007 0.666495-12.285905-9.589219-7.203203-30.747274 14.115605-42.957317 83.81942-48.141167 195.030159-48.141167 278.860417 0 21.29894 12.210044 26.397897 33.369905 14.104768 42.957317z" fill="#1F1E1D" p-id="4171"></path><path d="M804.282433 546.417512c-1.867631 16.086191-16.443822 27.611677-32.539043 25.733209-16.091609-1.878468-27.626127-16.443822-25.747659-32.542657l16.718368-143.328933c1.878468-16.107865 16.452853-27.631545 32.542656-25.753077 16.107865 1.887499 27.631545 16.454659 25.753077 32.542656l-16.727399 143.348802z" fill="#1F1E1D" p-id="4172"></path><path d="M821.620334 402.947694c-0.205909-0.0289-0.404593 0-0.59244-0.0289l-16.752685 143.637797c0.187847 0.037931 0.364856 0.102955 0.570765 0.113792 17.047099 1.999485 33.857584-22.014203 39.247343-68.280515 5.071864-43.56782-5.433108-73.451721-22.472983-75.442174z" fill="#9FA0A0" p-id="4173"></path><path d="M204.14073 546.417512c1.878468 16.086191 16.46369 27.611677 32.551687 25.733209 16.097028-1.878468 27.620708-16.443822 25.74224-32.542657l-16.70753-143.328933c-1.887499-16.107865-16.46369-27.631545-32.560718-25.753077-16.077159 1.887499-27.611677 16.454659-25.74224 32.542656l16.716561 143.348802z" fill="#1F1E1D" p-id="4174"></path><path d="M186.822698 402.947694c0.196878-0.0289 0.395562 0 0.590633-0.0289l16.754492 143.637797c-0.187847 0.037931-0.384725 0.102955-0.570765 0.113792-17.047099 1.999485-33.857584-22.014203-39.25818-68.280515-5.082702-43.56782 5.436721-73.451721 22.48382-75.442174z" fill="#9FA0A0" p-id="4175"></path><path d="M746.720025 783.519941l-164.375002-42.73154-28.363064 109.225703 164.376808 42.742377c30.154834 7.822736 60.959907-10.273776 68.78445-40.441253 7.842605-30.165671-10.266551-60.961713-40.423192-68.795287z" fill="#005775" p-id="4176"></path><path d="M678.667095 917.288554h122.035411l-11.682627-84.216789c-4.573348-33.059235-35.098457-56.153557-68.164916-51.571178-33.070072 4.593216-56.153557 35.107488-51.562147 68.175754l9.374279 67.612213z" fill="#005775" p-id="4177"></path><path d="M261.712169 783.519941l158.204957-42.73154 34.533109 109.225703-164.375002 42.742377c-30.15664 7.822736-60.961713-10.273776-68.784449-40.441253-7.842605-30.165671 10.262939-60.961713 40.421385-68.795287z" fill="#005775" p-id="4178"></path><path d="M329.763294 917.288554l9.372472-67.612213c4.593216-33.070072-18.492075-63.582538-51.56034-68.175754-33.070072-4.582379-63.591569 18.511943-68.164917 51.571178l-11.684433 84.216789h122.037218z" fill="#005775" p-id="4179"></path></svg>