<?xml version="1.0" standalone="no"?>
<!DOCTYPE svg PUBLIC "-//W3C//DTD SVG 20010904//EN"
 "http://www.w3.org/TR/2001/REC-SVG-20010904/DTD/svg10.dtd">
<svg version="1.0" xmlns="http://www.w3.org/2000/svg"
 width="250.000000pt" height="90.000000pt" viewBox="0 0 250.000000 90.000000"
 preserveAspectRatio="xMidYMid meet">

<g transform="translate(0.000000,90.000000) scale(0.100000,-0.100000)"
fill="#000000" stroke="none">
<path d="M128 548 c2 -188 0 -243 -10 -250 -7 -4 89 -8 214 -8 206 0 228 -2
237 -17 8 -14 10 -4 11 42 0 46 -3 56 -12 47 -8 -8 -64 -12 -185 -12 l-174 0
3 220 3 220 -45 0 -45 0 3 -242z"/>
<path d="M1680 710 l-185 -5 0 -207 0 -207 188 -3 187 -3 0 30 0 30 -155 -3
-155 -3 0 66 0 66 105 -3 105 -3 0 33 0 32 -105 0 -106 0 3 63 3 62 133 3 c80
1 140 -2 152 -8 18 -10 20 -8 20 30 0 22 -1 39 -2 38 -2 -1 -86 -5 -188 -8z"/>
<path d="M608 548 c4 -183 12 -210 72 -240 81 -40 232 -31 290 18 36 31 39 49
42 237 l3 147 -35 0 -35 0 0 -166 0 -167 -27 -20 c-40 -30 -176 -30 -216 0
l-27 20 0 167 0 166 -35 0 -35 0 3 -162z"/>
<path d="M1054 688 c30 -49 167 -378 161 -388 -4 -6 12 -10 45 -10 33 0 49 4
45 10 -6 10 137 370 158 398 7 9 0 12 -32 12 -33 0 -40 -3 -38 -17 2 -21 -122
-323 -133 -323 -4 0 -38 70 -75 156 -53 124 -64 158 -54 170 10 12 3 14 -40
14 -51 0 -51 0 -37 -22z"/>
<path d="M1925 500 l0 -210 40 0 c30 0 36 3 27 12 -15 15 -17 328 -3 328 5 0
70 -73 145 -162 90 -109 131 -165 123 -170 -7 -4 13 -7 43 -7 30 0 49 3 43 6
-18 7 -18 384 -1 401 9 9 3 12 -28 12 l-39 0 3 -161 c2 -98 0 -160 -6 -158
-16 7 -252 292 -252 306 0 9 -15 13 -47 13 l-48 0 0 -210z"/>
<path d="M472 164 c-24 -17 -29 -53 -10 -72 14 -14 58 -16 58 -2 0 5 -7 7 -16
3 -10 -4 -22 1 -30 12 -19 25 -1 55 34 55 21 0 24 2 12 10 -20 13 -22 13 -48
-6z"/>
<path d="M812 164 c-10 -18 -3 -74 9 -74 8 0 14 41 10 64 -1 5 4 13 11 17 10
7 9 9 -4 9 -9 0 -21 -7 -26 -16z"/>
<path d="M955 163 c-10 -22 -6 -65 6 -78 5 -5 9 3 9 23 0 19 5 32 13 32 8 0 7
4 -3 10 -13 9 -13 11 0 20 13 8 13 10 -1 10 -9 0 -20 -8 -24 -17z"/>
<path d="M1434 145 c-23 -48 -14 -65 34 -63 31 1 38 5 35 17 -2 9 -14 21 -26
26 -27 12 -30 41 -3 37 11 -2 15 1 11 7 -12 21 -34 11 -51 -24z m36 -46 c0 -5
-7 -9 -15 -9 -9 0 -15 9 -15 21 0 18 2 19 15 9 8 -7 15 -16 15 -21z"/>
<path d="M1610 170 c0 -5 6 -10 14 -10 10 0 16 -14 19 -42 l4 -43 1 43 c2 31
6 42 18 42 8 0 12 5 9 10 -3 6 -19 10 -36 10 -16 0 -29 -4 -29 -10z"/>
<path d="M634 136 c-10 -26 1 -51 22 -54 27 -4 47 21 39 48 -7 24 -53 28 -61
6z m49 -10 c8 -20 -20 -43 -35 -28 -14 14 -3 42 16 42 7 0 16 -6 19 -14z"/>
<path d="M1094 136 c-15 -38 22 -74 49 -47 7 7 4 8 -10 5 -12 -3 -24 -1 -27 5
-5 7 3 11 19 11 20 0 26 4 23 18 -4 22 -46 29 -54 8z m36 -6 c0 -5 -4 -10 -10
-10 -5 0 -10 5 -10 10 0 6 5 10 10 10 6 0 10 -4 10 -10z"/>
<path d="M1262 133 c-19 -36 33 -76 54 -42 4 7 0 9 -14 5 -11 -4 -23 -2 -27 4
-4 6 4 10 20 10 20 0 26 4 23 18 -5 24 -44 28 -56 5z m38 -3 c0 -5 -7 -10 -15
-10 -8 0 -15 5 -15 10 0 6 7 10 15 10 8 0 15 -4 15 -10z"/>
<path d="M1785 130 c-4 -12 -1 -27 5 -35 14 -17 50 -20 50 -4 0 5 -4 7 -10 4
-5 -3 -16 -3 -22 1 -9 6 -5 10 12 14 33 8 32 34 -2 38 -19 2 -28 -2 -33 -18z
m45 0 c0 -5 -7 -10 -15 -10 -8 0 -15 5 -15 10 0 6 7 10 15 10 8 0 15 -4 15
-10z"/>
<path d="M1954 136 c-12 -31 1 -51 34 -54 31 -3 32 -2 32 32 0 33 -2 36 -30
36 -17 0 -33 -6 -36 -14z m49 -10 c8 -20 -20 -43 -35 -28 -14 14 -3 42 16 42
7 0 16 -6 19 -14z"/>
</g>
</svg>
